<?xml version="1.0" encoding="utf-8"?>
<!-- Generator: Adobe Illustrator 27.0.0, SVG Export Plug-In . SVG Version: 6.00 Build 0)  -->
<svg version="1.1" id="Layer_1" xmlns="http://www.w3.org/2000/svg" xmlns:xlink="http://www.w3.org/1999/xlink" x="0px" y="0px"
	 viewBox="0 0 124.2 90" style="enable-background:new 0 0 124.2 90;" xml:space="preserve">
<style type="text/css">
	.st0{fill:#FF706B;stroke:#FF706B;stroke-miterlimit:10;}
</style>
<path class="st0" d="M7.8,0.7h108.8c3.9,0,7,3.2,7,7.1v74.8c0,1.4-0.4,2.8-1.2,4c-0.1,0.4-0.4,0.7-0.7,1c-0.2,0.2-0.4,0.3-0.7,0.5
	c-1.3,1.1-2.9,1.6-4.5,1.7H7.8c-3.9,0-7-3.1-7-7v-75C0.8,3.9,3.9,0.7,7.8,0.7z M7.5,79.5l36.8-38.2L7.5,10.2V79.5z M49.8,46.1
	L10.5,84.2h103L75.9,46.1l-11,9.2l0,0c-1,0.8-2.4,0.8-3.4,0L49.8,46.1z M81.4,41.3l35.5,38.6v-70L81.4,41.3z M10.9,6.1l52.2,42.3
	L113,6.1H10.9z"/>
</svg>
