<?xml version="1.0" encoding="utf-8"?>
<!-- Generator: Adobe Illustrator 27.0.0, SVG Export Plug-In . SVG Version: 6.00 Build 0)  -->
<svg version="1.1" id="Layer_1" xmlns="http://www.w3.org/2000/svg" xmlns:xlink="http://www.w3.org/1999/xlink" x="0px" y="0px"
	 viewBox="0 0 290.2 409.6" style="enable-background:new 0 0 290.2 409.6;" xml:space="preserve">
<style type="text/css">
	.st0{fill:#435BA9;}
	.st1{fill:#4767B0;}
	.st2{fill:#EBEBEB;}
	.st3{fill:#010101;}
	.st4{fill:#FFFFFF;}
</style>
<g id="layer1" transform="translate(-193.633,-276.3622)">
	<g id="g3013" transform="translate(119,276.3622)">
		<polygon id="polygon2989" class="st0" points="364.8,80.5 338.4,376.7 219.5,409.6 101,376.7 74.6,80.5 		"/>
		<polygon id="polygon2991" class="st1" points="315.8,357.8 338.3,104.7 219.7,104.7 219.7,384.4 		"/>
		<polygon id="polygon2993" class="st2" points="135.2,214.6 138.4,250.9 219.7,250.9 219.7,214.6 		"/>
		<polygon id="polygon2995" class="st2" points="219.7,141 219.6,141 128.6,141 131.9,177.4 219.7,177.4 		"/>
		<polygon id="polygon2997" class="st2" points="219.7,346.7 219.7,308.9 219.6,309 179.1,298 176.5,269.1 156.9,269.1 140.1,269.1 
			145.1,326.1 219.6,346.8 		"/>
		<path id="path2999" class="st3" d="M142.9,0h44v18.4h-25.6v18.4h25.6v18.4h-44V0z"/>
		<path id="path3001" class="st3" d="M195.7,0h44v16h-25.6v3.2h25.6V56h-44V39.2h25.6V36h-25.6V0z"/>
		<path id="path3003" class="st3" d="M248.5,0h44v16h-25.6v3.2h25.6V56h-44V39.2h25.6V36h-25.6V0z"/>
		<polygon id="polygon3005" class="st4" points="264.3,250.9 260.1,298 219.6,309 219.6,346.7 294.1,326.1 294.6,320 303.2,224.3 
			304,214.6 310.6,141 219.6,141 219.6,177.4 270.8,177.4 267.5,214.6 219.6,214.6 219.6,250.9 		"/>
	</g>
</g>
</svg>
