<?xml version="1.0" encoding="utf-8"?>
<!-- Generator: Adobe Illustrator 27.0.0, SVG Export Plug-In . SVG Version: 6.00 Build 0)  -->
<svg version="1.1" id="Layer_1" xmlns="http://www.w3.org/2000/svg" xmlns:xlink="http://www.w3.org/1999/xlink" x="0px" y="0px"
	 viewBox="0 0 361.7 388.8" style="enable-background:new 0 0 361.7 388.8;" xml:space="preserve">
<style type="text/css">
	.st0{opacity:0.85;fill:#121212;enable-background:new    ;}
	.st1{fill:#151515;}
	.st2{fill:#D6BB31;}
	.st3{fill:#FED940;}
	.st4{fill:#EBEBEB;}
</style>
<g id="layer1" transform="translate(-326.59295,-168.33349)">
	<g id="g8487" transform="translate(-202.57553,-38.463711)">
		<g id="g3652" transform="matrix(1.25,0,0,1.25,-2.5065195,174.1722)">
			<path id="path3654" class="st0" d="M642.3,25c3.5,0,6.9-0.1,10.4-0.1c0,1.9,0.1,5.8,0.2,7.7c-3.6,0-7.1,0-10.7,0
				C642.3,30.7,642.3,26.9,642.3,25z"/>
		</g>
		<path id="path3664" class="st1" d="M536.3,207.4c7.9,0.1,15.9,0.1,23.9,0.1c-0.7,14.2,2.1,29-1.9,42.8c-5.2,10-18.1,8-27.4,8.2
			c-0.4-3.2-0.7-6.3-1.1-9.5c5.3-0.4,11.2,0.6,16.1-2.1c3.2-9.9,1.8-20.4,1-30.5c-2.7,0.1-8.1,0.1-10.9,0.2
			C536.1,214.3,536.2,209.7,536.3,207.4L536.3,207.4z"/>
		<path id="path3666" class="st1" d="M695.5,211.3c9.4-7.2,21.7-4.3,32.1-1.5c0,2.8-0.1,8.3-0.1,11c-8.1-3.2-23.4-10.3-25.4,3
			c7.6,2.3,15.7,3.7,22.6,7.8c7.4,6,5.3,19.6-3.2,23.7c-9.6,5.7-21.1,2.6-31.3,0.5c-0.6-4.2-1.2-8.4-1.7-12.7
			c8.6,3.8,25.9,12.7,28.5-1.7c-8.6-3.2-19.3-3.7-25.5-11.1C688.7,224.1,689.2,215.4,695.5,211.3L695.5,211.3z"/>
		<path id="path3668" class="st1" d="M866.4,209.2c3.6,0,7.3,0,10.9,0c0.1,3.5,0.2,7,0.4,10.5c2.8,0,8.4,0.1,11.2,0.1
			c0.1,2.1,0.2,6.4,0.2,8.5c-2.8,0-8.5-0.1-11.4-0.2c0.2,7.1-1.7,14.8,1.9,21.3c2.7,0.3,8,0.8,10.6,1.1c-0.3,13-15.1,7.1-23,5.1
			c-0.7-7.9-1.1-15.9-1.1-23.9c-2-2.8-4-5.7-6-8.5c1.5-1.4,4.5-4.2,6.1-5.6C866.3,215.5,866.4,211.3,866.4,209.2L866.4,209.2z"/>
		<path id="path3670" class="st1" d="M569.9,220.1c10.1-0.5,24.2-4.3,30.5,6.2c2.3,10.3,0.8,21.1,1.2,31.6c-4.5-0.4-9-0.8-13.5-1.2
			c-5.1,0.4-11.2,4.2-15.9,0.8c-7.9-3.8-8-17.7,0.3-21.1c6-2.5,12.6-2.9,18.8-4.4c-6-6.2-14.4-3.8-21.9-3
			C569.5,226.7,569.7,222.3,569.9,220.1 M579.7,241.3c-0.3,3-0.6,6-0.9,9c3.4-0.2,6.9-0.3,10.3-0.5c0.2-3.2,0.5-6.5,0.8-9.7
			C586.5,240.5,583.1,240.9,579.7,241.3z"/>
		<path id="path3672" class="st1" d="M606.2,219c3,0.6,8.9,1.8,11.9,2.3c3.1,7.2,5.3,14.7,8.3,21.9c2.5-7.7,4.9-15.6,7.2-23.4
			c3-0.1,8.9-0.2,11.9-0.2c-4.2,13.3-8.9,26.4-14.2,39.3c-4.1-0.5-8.1-1.4-12-2.5C613.6,244.5,609.9,231.7,606.2,219L606.2,219z"/>
		<path id="path3674" class="st1" d="M649.3,228.8c0.9-2.9,1.9-5.9,2.9-8.7c9.6-1.4,22.6-3.4,29.2,5.5c2.3,10.7,0.9,21.8,1.1,32.6
			c-4.5-0.6-9.1-1.2-13.6-1.9c-8.1,4.3-21.6,2.8-21.4-8.7c-1.5-13.5,15.4-13.7,24.5-15.5C666.4,224.8,656.9,228.7,649.3,228.8
			 M660.4,241.6c-0.3,2.8-0.6,5.6-1,8.4c3.4,0.1,6.8,0.2,10.2,0.2c0.3-3.4,0.6-6.8,0.9-10.3C667.3,240.5,663.8,241,660.4,241.6
			L660.4,241.6z"/>
		<path id="path3676" class="st1" d="M732,239c-1-16.8,20.4-25.6,33.2-16.7c0.3,2.4,0.9,7.2,1.2,9.6c-5.9-1.9-11.9-6.1-18.2-3.2
			c-6.7,6.4-5.3,22.5,6,21.6c3.1-1,9.3-3,12.5-4c-0.6,2.7-1.6,8-2.2,10.6C751.1,263.2,730.9,255.7,732,239L732,239z"/>
		<path id="path3678" class="st1" d="M771.5,218.9c4.6,1.2,9.4,2.5,14,3.8c3.5-1.3,7-2.5,10.6-3.8c0.2,3,0.5,8.9,0.7,11.9
			c-4.5,0.2-8.9,0.4-13.3,0.6c-0.3,8.9-0.4,17.7-0.5,26.6c-2.9,0-8.7,0.1-11.7,0.1C771.2,245,771.2,231.9,771.5,218.9L771.5,218.9z"
			/>
		<path id="path3680" class="st1" d="M821.8,219.7c8.5,1.9,17.1,1.3,25.6-0.4c13.3,2.8,13.6,21.6,8.6,31.5
			c-4.2,8.5-14.5,7.7-22.4,7.3c0.1,4.5,0.1,9,0.2,13.5c-3,0-9-0.1-12-0.2C821.7,254.3,821.7,237,821.8,219.7 M833.8,228.8
			c-0.1,7.2-0.2,14.4-0.1,21.6c3.8-1.1,8.8-0.3,11.7-3.6c2.2-5.9,0.5-12.2,0-18.3C841.6,228.6,837.7,228.7,833.8,228.8L833.8,228.8z
			"/>
		<g id="g3688" transform="matrix(1.25,0,0,1.25,-2.5065195,174.1722)">
			<path id="path3690" class="st1" d="M643.2,36.5c2.2,0,6.6,0,8.8,0c0.1,10.2,0.1,20.4,0,30.6c-2.2,0-6.6,0-8.8,0
				C643,56.9,643,46.7,643.2,36.5z"/>
		</g>
		<g id="g3768" transform="matrix(1.25,0,0,1.25,-2.5065195,174.1722)">
			<path id="path3770" class="st2" d="M459.7,87c24.7-1,49.4,0.3,74-0.1c27.2-0.9,54.4-0.1,81.7,0c21.6,0,43.2-0.1,64.8,0.1
				c-6.8,75-13.7,150-20,225.1c-29,8.2-57.9,16.3-86.9,24.5c-3.7,1.5-7.5,0.1-11.1-0.9c-27.5-7.9-55.1-15.8-82.6-23.4
				C472.5,237.2,465.8,162.1,459.7,87 M570.5,106.5c-1,37-0.1,74-0.4,111c0.3,33.8-0.5,67.7,0.4,101.5c24.3-5.7,48.4-12.8,72.4-19.7
				c6-64.2,11.9-128.5,17-192.8C630,106.3,600.2,106.6,570.5,106.5 M539.5,251c-14.3-3.9-28.4-8.4-42.9-11.5
				c-0.4,8.6-0.3,17.2,0.7,25.8c21.2,5.2,42,12,63.2,17c0.1-49-0.1-98,0.1-147c-6.9-0.2-13.9-0.3-20.8-0.4
				C539.1,173.6,539.8,212.3,539.5,251L539.5,251z"/>
		</g>
		<g id="g3796" transform="matrix(1.25,0,0,1.25,-2.5065195,174.1722)">
			<path id="path3798" class="st3" d="M570.5,106.5c29.8,0.1,59.5-0.3,89.3,0c-5,64.3-10.9,128.5-17,192.8c-24,6.9-48,14-72.4,19.7
				c-0.9-33.8-0.1-67.7-0.4-101.5C570.3,180.5,569.4,143.5,570.5,106.5 M578.8,135.3c0.1,31.9,0.1,63.7,0,95.6
				c14.5-2.3,29-5,43.5-7.7c-0.2,7.4-0.5,14.8-0.8,22.3c-14.1,3.8-28.2,7.6-42.4,11.1c-0.2,8.6-0.2,17.1-0.2,25.7
				c17.9-4,35.5-9.1,53.2-13.5c2.2-1,6.5-0.9,6.3-4.4c2.2-22.9,3.5-45.9,5.6-68.9c-14.7,1.2-29.3,3.7-44,4.7c-0.1-13-0.1-26,0-39
				c15.5,0,30.9,0,46.4,0c1-8.7,1.9-17.4,2.5-26.1C625.6,135.2,602.2,134.9,578.8,135.3L578.8,135.3z"/>
		</g>
		<path id="path3806" class="st4" d="M671.9,487.9c0.4-48.4-0.5-96.8,0.5-145.1c8.7,0.2,17.3,0.3,26,0.5
			c-0.2,61.2,0.1,122.5-0.1,183.8c-26.6-6.3-52.5-14.8-79.1-21.3c-1.2-10.7-1.4-21.5-0.9-32.2C636.3,477.4,654,483.1,671.9,487.9z"
			/>
	</g>
</g>
</svg>
